<svg height="200px" width="200px" version="1.1" id="Layer_1" xmlns="http://www.w3.org/2000/svg" xmlns:xlink="http://www.w3.org/1999/xlink" viewBox="0 0 511.999 511.999" xml:space="preserve" fill="#000000"><g id="SVGRepo_bgCarrier" stroke-width="0"></g><g id="SVGRepo_tracerCarrier" stroke-linecap="round" stroke-linejoin="round"></g><g id="SVGRepo_iconCarrier"> <g> <path style="fill:#6b374b;" d="M57.394,450.838v-49.583v-90.603v-11.684H34.03c-12.852,0-23.363,10.512-23.363,23.364v115v1.827 c0,12.852,10.512,23.363,23.363,23.363h23.363v-11.684H57.394z"></path> <g> <path style="fill:#fbfb75;" d="M80.76,310.652H57.394v70.638v69.548H80.76c12.851,0,23.363-10.508,23.363-23.363v-93.458 C112.123,321.165,93.611,310.652,80.76,310.652z"></path> <path style="fill:#fbfb75;" d="M407.874,425.653c0,12.851,10.515,23.362,23.366,23.362h23.365v-70.641v-69.549H431.24 c-12.852,0-23.366,10.512-23.366,23.368V425.653z"></path> </g> <g> <path style="fill:#6b374b;" d="M454.605,378.375v70.641v11.68h23.363c12.852,0,23.364-10.511,23.364-23.363V320.51 c0-12.851-10.512-23.364-23.364-23.364h-23.363v11.68V378.375z"></path> <path style="fill:#6b374b;" d="M256.001,100.879c40.195,0,77.569,12.083,108.683,32.808c21.27,14.166,37.385,17.391,48.273,6.503 c10.887-10.89,10.514-30.17-24.611-52.419c-38.285-24.253-83.674-38.293-132.343-38.293c-48.67,0-94.063,14.041-132.344,38.293 C88.532,110.019,88.156,129.3,99.047,140.19c10.887,10.888,27.003,7.665,48.273-6.503 C178.43,112.962,215.805,100.879,256.001,100.879z"></path> </g> </g> <g> <path style="fill:#000003;" d="M454.605,402.051c-5.892,0-10.667,4.776-10.667,10.667v1.024c0,5.892,4.776,10.667,10.667,10.667 s10.668-4.776,10.668-10.667v-1.024C465.272,406.827,460.497,402.051,454.605,402.051z"></path> <path style="fill:#000003;" d="M488.448,288.136c-2.11-55.768-23.774-108.067-61.715-148.99c2.594-5.195,3.639-10.948,2.984-16.851 c-1.658-14.948-13.658-29.596-35.665-43.536c-41.257-26.135-88.994-39.95-138.052-39.95c-49.062,0-96.8,13.814-138.051,39.95 c-22.01,13.94-34.011,28.589-35.668,43.538c-0.654,5.903,0.391,11.656,2.985,16.849c-38.359,41.374-60.085,94.376-61.782,150.834 C9.868,294.432,0,307.248,0,322.333v116.826c0,18.764,15.266,34.03,34.03,34.03h23.363c5.891,0,10.667-4.776,10.667-10.667v-1.017 h12.699c18.765,0,34.03-15.266,34.03-34.03v-93.458c0-18.765-15.266-34.031-34.03-34.031H68.062v-1.017 c0-5.892-4.777-10.667-10.667-10.667H44.895c2.051-50.166,21.531-97.21,55.54-134.138c4.354,2.116,9.155,3.19,14.366,3.19 c10.921,0,23.491-4.837,38.431-14.787c30.462-20.292,65.999-31.018,102.768-31.018c36.767,0,72.303,10.726,102.77,31.019 c14.94,9.952,27.51,14.788,38.431,14.787c5.211-0.001,10.011-1.072,14.365-3.189c33.597,36.482,53.027,82.832,55.47,132.314 h-12.431c-5.892,0-10.667,4.776-10.667,10.667v1.012H431.24c-18.767,0-34.034,15.268-34.034,34.036v93.459 c0,18.764,15.267,34.029,34.034,34.029h12.698v1.012c0,5.892,4.776,10.667,10.667,10.667h23.363 c18.765,0,34.031-15.266,34.031-34.03V320.51C512,305.401,502.101,292.567,488.448,288.136z M46.727,310.652 c0,5.892,4.777,10.668,10.667,10.668H80.76c7.001,0,12.695,5.695,12.695,12.696v93.458c0,7.001-5.695,12.695-12.695,12.695H68.062 v-64.818c0-5.892-4.777-10.667-10.667-10.667s-10.667,4.776-10.667,10.667v76.502H34.03c-7.001,0-12.695-5.695-12.695-12.695 V322.333c0-7.001,5.695-12.696,12.695-12.696h12.695v1.016H46.727z M397.2,136.017c-4.458,0.001-12.691-1.944-26.604-11.208 c-33.979-22.633-73.606-34.597-114.595-34.597c-40.993,0-80.62,11.964-114.596,34.597c-13.909,9.265-22.146,11.208-26.604,11.208 c-3.349,0-5.882-1.039-8.212-3.371c-2.416-2.416-3.431-5.032-3.101-7.998c0.411-3.71,3.756-13.853,25.879-27.866 c37.831-23.969,81.621-36.637,126.634-36.637c45.009,0,88.799,12.67,126.636,36.637c22.119,14.011,25.464,24.153,25.876,27.865 c0.33,2.967-0.685,5.584-3.1,8.001C403.082,134.978,400.548,136.017,397.2,136.017z M490.665,437.332 c0,7.001-5.695,12.695-12.696,12.695h-12.695v-1.012c0-5.892-4.776-10.668-10.668-10.668h-23.365 c-7.001,0-12.699-5.694-12.699-12.694v-93.459c0-7.003,5.698-12.701,12.699-12.701h12.698v64.093 c0,5.892,4.776,10.668,10.668,10.668c5.892,0,10.667-4.776,10.667-10.668v-75.773h12.695c7.002,0,12.696,5.695,12.696,12.696 L490.665,437.332L490.665,437.332z"></path> <path style="fill:#000003;" d="M57.394,357.618c5.891,0,10.667-4.776,10.667-10.667v-1.024c0-5.892-4.777-10.667-10.667-10.667 s-10.667,4.776-10.667,10.667v1.024C46.727,352.842,51.503,357.618,57.394,357.618z"></path> </g> </g></svg>